<svg width="25" height="25" viewBox="0 0 25 25" fill="none" xmlns="http://www.w3.org/2000/svg">
<path d="M9.67035 16.0799C9.48035 16.0799 9.29035 16.0099 9.14035 15.8599C8.85035 15.5699 8.85035 15.0899 9.14035 14.7999L14.8004 9.13986C15.0904 8.84986 15.5704 8.84986 15.8604 9.13986C16.1504 9.42986 16.1504 9.90986 15.8604 10.1999L10.2004 15.8599C10.0604 16.0099 9.86035 16.0799 9.67035 16.0799Z" fill="#292D32"/>
<path d="M15.3304 16.0799C15.1404 16.0799 14.9504 16.0099 14.8004 15.8599L9.14035 10.1999C8.85035 9.90986 8.85035 9.42986 9.14035 9.13986C9.43035 8.84986 9.91035 8.84986 10.2004 9.13986L15.8604 14.7999C16.1504 15.0899 16.1504 15.5699 15.8604 15.8599C15.7104 16.0099 15.5204 16.0799 15.3304 16.0799Z" fill="#292D32"/>
<path d="M15.5 23.25H9.5C4.07 23.25 1.75 20.93 1.75 15.5V9.5C1.75 4.07 4.07 1.75 9.5 1.75H15.5C20.93 1.75 23.25 4.07 23.25 9.5V15.5C23.25 20.93 20.93 23.25 15.5 23.25ZM9.5 3.25C4.89 3.25 3.25 4.89 3.25 9.5V15.5C3.25 20.11 4.89 21.75 9.5 21.75H15.5C20.11 21.75 21.75 20.11 21.75 15.5V9.5C21.75 4.89 20.11 3.25 15.5 3.25H9.5Z" fill="#292D32"/>
</svg>
