<svg width="28" height="24" viewBox="0 0 28 24" fill="none" xmlns="http://www.w3.org/2000/svg">
<path d="M13.6756 16.3299C10.952 16.3299 8.74121 14.3899 8.74121 11.9999C8.74121 9.60992 10.952 7.66992 13.6756 7.66992C16.3992 7.66992 18.6099 9.60992 18.6099 11.9999C18.6099 14.3899 16.3992 16.3299 13.6756 16.3299ZM13.6756 9.16992C11.8978 9.16992 10.4506 10.4399 10.4506 11.9999C10.4506 13.5599 11.8978 14.8299 13.6756 14.8299C15.4533 14.8299 16.9006 13.5599 16.9006 11.9999C16.9006 10.4399 15.4533 9.16992 13.6756 9.16992Z" fill="#292D32"/>
<path d="M13.676 21.02C9.3912 21.02 5.34571 18.82 2.56514 15C1.35719 13.35 1.35719 10.66 2.56514 8.99998C5.3571 5.17998 9.4026 2.97998 13.676 2.97998C17.9494 2.97998 21.9949 5.17998 24.7755 8.99998C25.9834 10.65 25.9834 13.34 24.7755 15C21.9949 18.82 17.9494 21.02 13.676 21.02ZM13.676 4.47998C9.99518 4.47998 6.47389 6.41998 4.0124 9.80998C3.15772 10.98 3.15772 13.02 4.0124 14.19C6.47389 17.58 9.99518 19.52 13.676 19.52C17.3568 19.52 20.8781 17.58 23.3396 14.19C24.1943 13.02 24.1943 10.98 23.3396 9.80998C20.8781 6.41998 17.3568 4.47998 13.676 4.47998Z" fill="#292D32"/>
</svg>
