<svg width="21" height="21" viewBox="0 0 21 21" fill="none" xmlns="http://www.w3.org/2000/svg">
<path d="M15.886 20.5H5.11395C2.56512 20.5 0.5 18.4233 0.5 15.8717V8.97114C0.5 7.70464 1.2814 6.11221 2.28605 5.32996L7.3 1.41871C8.80698 0.245338 11.2163 0.189463 12.7791 1.28834L18.5279 5.32064C19.6349 6.09358 20.5 7.7512 20.5 9.10151V15.881C20.5 18.4233 18.4349 20.5 15.886 20.5ZM8.15581 2.51758L3.14186 6.42883C2.4814 6.95033 1.89535 8.13302 1.89535 8.97114V15.8717C1.89535 17.6504 3.33721 19.1031 5.11395 19.1031H15.886C17.6628 19.1031 19.1047 17.6597 19.1047 15.881V9.10151C19.1047 8.20752 18.4628 6.96895 17.7279 6.46608L11.9791 2.43377C10.9186 1.68877 9.16977 1.72602 8.15581 2.51758Z" fill="#555555"/>
</svg>
