<svg width="25" height="25" viewBox="0 0 25 25" fill="none" xmlns="http://www.w3.org/2000/svg">
<path d="M15.7395 22.77H15.6095C11.1695 22.77 9.02953 21.02 8.65953 17.1C8.61953 16.69 8.91953 16.32 9.33953 16.28C9.74953 16.24 10.1195 16.55 10.1595 16.96C10.4495 20.1 11.9295 21.27 15.6195 21.27H15.7495C19.8195 21.27 21.2595 19.83 21.2595 15.76V9.23998C21.2595 5.16998 19.8195 3.72998 15.7495 3.72998H15.6195C11.9095 3.72998 10.4295 4.91998 10.1595 8.11998C10.1095 8.52998 9.76953 8.83998 9.33953 8.79998C8.91953 8.76998 8.61953 8.39998 8.64953 7.98998C8.98953 4.00998 11.1395 2.22998 15.6095 2.22998H15.7395C20.6495 2.22998 22.7495 4.32998 22.7495 9.23998V15.76C22.7495 20.67 20.6495 22.77 15.7395 22.77Z" fill="#555555"/>
<path d="M15.38 13.25H2.5C2.09 13.25 1.75 12.91 1.75 12.5C1.75 12.09 2.09 11.75 2.5 11.75H15.38C15.79 11.75 16.13 12.09 16.13 12.5C16.13 12.91 15.8 13.25 15.38 13.25Z" fill="#555555"/>
<path d="M13.1498 16.6001C12.9598 16.6001 12.7698 16.5301 12.6198 16.3801C12.3298 16.0901 12.3298 15.6101 12.6198 15.3201L15.4398 12.5001L12.6198 9.68009C12.3298 9.39009 12.3298 8.91009 12.6198 8.62009C12.9098 8.33009 13.3898 8.33009 13.6798 8.62009L17.0298 11.9701C17.3198 12.2601 17.3198 12.7401 17.0298 13.0301L13.6798 16.3801C13.5298 16.5301 13.3398 16.6001 13.1498 16.6001Z" fill="#555555"/>
</svg>
