<svg width="25" height="25" viewBox="0 0 25 25" fill="none" xmlns="http://www.w3.org/2000/svg">
<path d="M16.3101 20.68C16.0501 20.68 15.7801 20.67 15.4901 20.64C14.9701 20.6 14.3801 20.5 13.7701 20.35L12.0901 19.95C7.48007 18.86 5.97007 16.42 7.05007 11.82L8.03007 7.63001C8.25007 6.68002 8.51007 5.91002 8.83007 5.27002C10.5501 1.72002 13.8401 2.04001 16.1801 2.59001L17.8501 2.98001C20.1901 3.53001 21.6701 4.40001 22.5001 5.73002C23.3201 7.06002 23.4501 8.77001 22.9001 11.11L21.9201 15.29C21.0601 18.95 19.2701 20.68 16.3101 20.68ZM13.6201 3.75001C11.9501 3.75001 10.8901 4.44002 10.1801 5.92002C9.92007 6.46002 9.69007 7.13001 9.49007 7.97001L8.51007 12.16C7.62007 15.94 8.65007 17.59 12.4301 18.49L14.1101 18.89C14.6501 19.02 15.1601 19.1 15.6201 19.14C18.3401 19.41 19.6901 18.22 20.4501 14.95L21.4301 10.77C21.8801 8.84002 21.8201 7.49002 21.2201 6.52001C20.6201 5.55001 19.4401 4.89002 17.5001 4.44002L15.8301 4.05001C15.0001 3.85001 14.2601 3.75001 13.6201 3.75001Z" fill="#555555"/>
<path d="M8.83005 22.7499C6.26005 22.7499 4.62005 21.2099 3.57005 17.9599L2.29005 14.0099C0.870052 9.60993 2.14005 7.12993 6.52005 5.70993L8.10005 5.19993C8.62005 5.03993 9.01005 4.92993 9.36005 4.86993C9.65005 4.80993 9.93005 4.91993 10.1001 5.14993C10.2701 5.37993 10.3001 5.67993 10.1801 5.93993C9.92005 6.46993 9.69005 7.13993 9.50005 7.97993L8.52005 12.1699C7.63005 15.9499 8.66005 17.5999 12.4401 18.4999L14.1201 18.8999C14.6601 19.0299 15.1701 19.1099 15.6301 19.1499C15.9501 19.1799 16.2101 19.3999 16.3001 19.7099C16.3801 20.0199 16.2601 20.3399 16.0001 20.5199C15.3401 20.9699 14.5101 21.3499 13.4601 21.6899L11.8801 22.2099C10.7301 22.5699 9.73005 22.7499 8.83005 22.7499ZM8.28005 6.71993L6.99005 7.13993C3.42005 8.28993 2.57005 9.96993 3.72005 13.5499L5.00005 17.4999C6.16005 21.0699 7.84005 21.9299 11.4101 20.7799L12.9901 20.2599C13.0501 20.2399 13.1001 20.2199 13.1601 20.1999L12.1001 19.9499C7.49005 18.8599 5.98005 16.4199 7.06005 11.8199L8.04005 7.62993C8.11005 7.30993 8.19005 6.99993 8.28005 6.71993Z" fill="#555555"/>
<path d="M17.9904 11.01C17.9304 11.01 17.8704 11 17.8004 10.99L12.9504 9.76002C12.5504 9.66002 12.3104 9.25002 12.4104 8.85002C12.5104 8.45002 12.9204 8.21002 13.3204 8.31002L18.1704 9.54002C18.5704 9.64002 18.8104 10.05 18.7104 10.45C18.6304 10.78 18.3204 11.01 17.9904 11.01Z" fill="#555555"/>
<path d="M15.0601 14.3899C15.0001 14.3899 14.9401 14.3799 14.8701 14.3699L11.9601 13.6299C11.5601 13.5299 11.3201 13.1199 11.4201 12.7199C11.5201 12.3199 11.9301 12.0799 12.3301 12.1799L15.2401 12.9199C15.6401 13.0199 15.8801 13.4299 15.7801 13.8299C15.7001 14.1699 15.4001 14.3899 15.0601 14.3899Z" fill="#555555"/>
</svg>
