<svg width="25" height="25" viewBox="0 0 25 25" fill="none" xmlns="http://www.w3.org/2000/svg">
<path d="M18.1201 10.1201H12.8701C12.4601 10.1201 12.1201 9.78012 12.1201 9.37012C12.1201 8.96012 12.4601 8.62012 12.8701 8.62012H18.1201C18.5301 8.62012 18.8701 8.96012 18.8701 9.37012C18.8701 9.78012 18.5401 10.1201 18.1201 10.1201Z" fill="#555555"/>
<path d="M7.61957 10.8801C7.42957 10.8801 7.23957 10.8101 7.08957 10.6601L6.33957 9.91007C6.04957 9.62007 6.04957 9.14007 6.33957 8.85007C6.62957 8.56007 7.10957 8.56007 7.39957 8.85007L7.61957 9.07007L9.33957 7.35007C9.62957 7.06007 10.1096 7.06007 10.3996 7.35007C10.6896 7.64007 10.6896 8.12007 10.3996 8.41007L8.14957 10.6601C8.00957 10.8001 7.81957 10.8801 7.61957 10.8801Z" fill="#555555"/>
<path d="M18.1201 17.1201H12.8701C12.4601 17.1201 12.1201 16.7801 12.1201 16.3701C12.1201 15.9601 12.4601 15.6201 12.8701 15.6201H18.1201C18.5301 15.6201 18.8701 15.9601 18.8701 16.3701C18.8701 16.7801 18.5401 17.1201 18.1201 17.1201Z" fill="#555555"/>
<path d="M7.61957 17.8801C7.42957 17.8801 7.23957 17.8101 7.08957 17.6601L6.33957 16.9101C6.04957 16.6201 6.04957 16.1401 6.33957 15.8501C6.62957 15.5601 7.10957 15.5601 7.39957 15.8501L7.61957 16.0701L9.33957 14.3501C9.62957 14.0601 10.1096 14.0601 10.3996 14.3501C10.6896 14.6401 10.6896 15.1201 10.3996 15.4101L8.14957 17.6601C8.00957 17.8001 7.81957 17.8801 7.61957 17.8801Z" fill="#555555"/>
<path d="M15.5 23.25H9.5C4.07 23.25 1.75 20.93 1.75 15.5V9.5C1.75 4.07 4.07 1.75 9.5 1.75H15.5C20.93 1.75 23.25 4.07 23.25 9.5V15.5C23.25 20.93 20.93 23.25 15.5 23.25ZM9.5 3.25C4.89 3.25 3.25 4.89 3.25 9.5V15.5C3.25 20.11 4.89 21.75 9.5 21.75H15.5C20.11 21.75 21.75 20.11 21.75 15.5V9.5C21.75 4.89 20.11 3.25 15.5 3.25H9.5Z" fill="#555555"/>
</svg>
