<svg width="25" height="25" viewBox="0 0 25 25" fill="none" xmlns="http://www.w3.org/2000/svg">
<path d="M15.5 23.25H9.5C4.07 23.25 1.75 20.93 1.75 15.5V9.5C1.75 4.07 4.07 1.75 9.5 1.75H15.5C20.93 1.75 23.25 4.07 23.25 9.5V15.5C23.25 20.93 20.93 23.25 15.5 23.25ZM9.5 3.25C4.89 3.25 3.25 4.89 3.25 9.5V15.5C3.25 20.11 4.89 21.75 9.5 21.75H15.5C20.11 21.75 21.75 20.11 21.75 15.5V9.5C21.75 4.89 20.11 3.25 15.5 3.25H9.5Z" fill="#292D32"/>
<path d="M11.0804 16.0801C10.8804 16.0801 10.6904 16.0001 10.5504 15.8601L7.72043 13.0301C7.43043 12.7401 7.43043 12.2601 7.72043 11.9701C8.01043 11.6801 8.49043 11.6801 8.78043 11.9701L11.0804 14.2701L16.2204 9.1301C16.5104 8.8401 16.9904 8.8401 17.2804 9.1301C17.5704 9.4201 17.5704 9.9001 17.2804 10.1901L11.6104 15.8601C11.4704 16.0001 11.2804 16.0801 11.0804 16.0801Z" fill="#292D32"/>
</svg>
